<svg width="112" height="22" viewBox="0 0 112 22" fill="none" xmlns="http://www.w3.org/2000/svg">
<path fill-rule="evenodd" clip-rule="evenodd" d="M28.3989 7.90411H34.9106V17.2111H34.9579C37.5292 17.2111 39.6138 15.1871 39.6138 12.6901V7.90411H46.3065V4.03992H28.3989V7.90411Z" fill="#1F073B"/>
<path fill-rule="evenodd" clip-rule="evenodd" d="M59.5736 13.3491H55.0981C53.5371 13.3491 52.1883 12.187 52.1153 10.6728C52.0379 9.06267 53.3645 7.72839 55.0065 7.72839H59.4818C61.0428 7.72839 62.3918 8.89072 62.4646 10.4047C62.542 12.0153 61.2152 13.3491 59.5736 13.3491ZM60.6797 3.86438H53.9005C50.1199 3.86438 47.0269 6.86785 47.0269 10.5387C47.0269 14.2097 50.1199 17.2133 53.9005 17.2133H60.6797C64.4601 17.2133 67.5534 14.2097 67.5534 10.5387C67.5534 6.86785 64.4601 3.86438 60.6797 3.86438Z" fill="#1F073B"/>
<path fill-rule="evenodd" clip-rule="evenodd" d="M103.919 13.3491H99.4439C97.8829 13.3491 96.5339 12.187 96.4609 10.6728C96.3835 9.06267 97.7103 7.72839 99.3521 7.72839H103.828C105.388 7.72839 106.738 8.89072 106.81 10.4047C106.888 12.0153 105.561 13.3491 103.919 13.3491ZM105.025 3.86438H98.246C94.4656 3.86438 91.3726 6.86785 91.3726 10.5387C91.3726 14.2097 94.4656 17.2133 98.246 17.2133H105.025C108.806 17.2133 111.899 14.2097 111.899 10.5387C111.899 6.86785 108.806 3.86438 105.025 3.86438Z" fill="#1F073B"/>
<path fill-rule="evenodd" clip-rule="evenodd" d="M83.8158 8.7949C83.8158 9.46413 83.2517 10.0121 82.5621 10.0121H76.2178V7.55318H82.5621C83.2517 7.55318 83.8158 8.10093 83.8158 8.77057V8.7949ZM88.5789 8.99482C88.5789 7.68029 88.0257 6.48584 87.1323 5.61794C86.2403 4.75202 85.0101 4.21484 83.6565 4.21484H70.9727V11.6378V13.8759V17.037H76.037V13.8759H81.3911L83.2695 17.037H88.5789L86.3013 13.0204C87.6676 12.1682 88.5789 10.6798 88.5789 8.99482Z" fill="#1F073B"/>
<path fill-rule="evenodd" clip-rule="evenodd" d="M10.3104 21.0089V15.7654C10.3104 15.7089 10.2446 15.6768 10.1978 15.7105C7.51909 17.6402 4.4704 19.3996 1.11789 20.9471C1.0501 20.9786 1.07311 21.0775 1.14829 21.0775H10.2397C10.2787 21.0775 10.3104 21.0466 10.3104 21.0089Z" fill="#6131B4"/>
<path fill-rule="evenodd" clip-rule="evenodd" d="M21.1625 0.108314C21.1956 0.062834 21.1619 0 21.1048 0H7.29643C3.26685 0 0 3.14589 0 7.02644V13.6045C0 13.6515 0.0476582 13.6847 0.0934676 13.6695C9.51295 10.589 17.0132 5.78293 21.1625 0.108314Z" fill="#6131B4"/>
<path fill-rule="evenodd" clip-rule="evenodd" d="M14.1089 12.7033V21.0089C14.1089 21.0466 14.1405 21.0774 14.1796 21.0774H14.41C18.4394 21.0774 21.7061 17.9317 21.7061 14.0511V1.93533C21.7061 1.85813 21.5949 1.83978 21.5688 1.91279C20.2046 5.74148 17.6489 9.37827 14.1305 12.654C14.1167 12.6668 14.1089 12.6845 14.1089 12.7033Z" fill="#6131B4"/>
</svg>
